<svg width="26" height="26" viewBox="0 0 26 26" fill="none" xmlns="http://www.w3.org/2000/svg">
<path d="M9.19509 4.19938C9.80775 4.0847 10.422 4.3906 10.6893 4.94349C10.7559 5.04382 10.8091 5.15204 10.8478 5.26557C11.0176 7.88662 11.1987 10.4632 11.3685 13.0399C11.3647 13.3077 11.4068 13.5743 11.493 13.8284C11.6962 14.3284 12.2017 14.6457 12.7496 14.6169L21.0698 14.0838L21.1264 14.1061L21.2782 14.117C21.579 14.1555 21.8594 14.2928 22.0723 14.5088C22.3207 14.7608 22.4569 15.0994 22.451 15.4499C22.1229 20.2275 18.6202 24.2194 13.8535 25.2478C9.08672 26.2762 4.20022 24.0943 1.85973 19.8924C1.17152 18.6821 0.736628 17.3492 0.580567 15.9719C0.520039 15.5638 0.493538 15.1515 0.501327 14.7391C0.517103 9.65883 4.1341 5.27383 9.19509 4.19938ZM14.1419 0.501031C19.8554 0.672068 24.6305 4.81975 25.4959 10.3633C25.5014 10.3964 25.5014 10.4301 25.4959 10.4632L25.4943 10.6197C25.4755 10.8266 25.3906 11.0239 25.2495 11.1823C25.0732 11.3803 24.8237 11.5012 24.5563 11.5183L14.957 12.1514L14.7988 12.1545C14.5368 12.1417 14.2855 12.0398 14.0898 11.8637C13.8549 11.6522 13.7218 11.3535 13.7231 11.0408L13.0778 1.61165V1.45616C13.0896 1.19097 13.2084 0.941254 13.408 0.762078C13.6076 0.582903 13.8717 0.488984 14.1419 0.501031Z" fill="#B9BCBE"/>
</svg>
