<svg width="22" height="26" viewBox="0 0 22 26" fill="none" xmlns="http://www.w3.org/2000/svg">
<path d="M8.60827 22.0349C9.23316 21.9027 13.0409 21.9027 13.6658 22.0349C14.2 22.1583 14.7777 22.4466 14.7777 23.076C14.7466 23.6753 14.395 24.2066 13.9093 24.544C13.2794 25.035 12.5402 25.3459 11.7675 25.458C11.3401 25.5134 10.9202 25.5146 10.5078 25.458C9.73382 25.3459 8.99464 25.035 8.36602 24.5427C7.87903 24.2066 7.52745 23.6753 7.49639 23.076C7.49639 22.4466 8.07407 22.1583 8.60827 22.0349ZM11.2108 0.5C13.811 0.5 16.4671 1.73377 18.0449 3.78083C19.0685 5.09895 19.5381 6.41582 19.5381 8.46288V8.99541C19.5381 10.5653 19.9531 11.4907 20.8662 12.557C21.5582 13.3426 21.7793 14.351 21.7793 15.445C21.7793 16.5378 21.4203 17.5752 20.701 18.4174C19.7593 19.4271 18.4312 20.0717 17.0758 20.1837C15.1117 20.3512 13.1464 20.4922 11.1549 20.4922C9.16223 20.4922 7.19811 20.4078 5.23399 20.1837C3.87737 20.0717 2.54932 19.4271 1.60888 18.4174C0.889572 17.5752 0.529297 16.5378 0.529297 15.445C0.529297 14.351 0.751673 13.3426 1.44241 12.557C2.38409 11.4907 2.7717 10.5653 2.7717 8.99541V8.46288C2.7717 6.36042 3.29596 4.98565 4.37554 3.63983C5.98063 1.67712 8.55349 0.5 11.099 0.5H11.2108Z" fill="#118EEA"/>
</svg>
